<mxfile host="app.diagrams.net" modified="2023-05-29T09:09:45.842Z" agent="Mozilla/5.0 (Windows NT 10.0; Win64; x64) AppleWebKit/537.36 (KHTML, like Gecko) Chrome/113.0.0.0 Safari/537.36" etag="3axnmzmDhIoR1rmIDwZh" version="21.2.9" type="device">
  <diagram name="Page-1" id="DQg9S_WxvZjkH4IybJpQ">
    <mxGraphModel dx="3033" dy="2332" grid="1" gridSize="10" guides="1" tooltips="1" connect="1" arrows="1" fold="1" page="1" pageScale="1" pageWidth="827" pageHeight="1169" math="0" shadow="0">
      <root>
        <mxCell id="0" />
        <mxCell id="1" parent="0" />
        <mxCell id="6UN-5yC824onA_a0hbCS-1" value="" style="rounded=0;whiteSpace=wrap;html=1;" parent="1" vertex="1">
          <mxGeometry x="20" y="-270" width="1080" height="1470" as="geometry" />
        </mxCell>
        <mxCell id="6UN-5yC824onA_a0hbCS-2" value="Company-Hub" style="text;html=1;strokeColor=none;fillColor=none;align=center;verticalAlign=middle;whiteSpace=wrap;rounded=0;" parent="1" vertex="1">
          <mxGeometry x="460" y="-250" width="250" height="30" as="geometry" />
        </mxCell>
        <mxCell id="6UN-5yC824onA_a0hbCS-74" style="rounded=0;orthogonalLoop=1;jettySize=auto;html=1;" parent="1" target="6UN-5yC824onA_a0hbCS-46" edge="1">
          <mxGeometry relative="1" as="geometry">
            <mxPoint x="-190" y="470" as="sourcePoint" />
          </mxGeometry>
        </mxCell>
        <mxCell id="6UN-5yC824onA_a0hbCS-78" style="rounded=0;orthogonalLoop=1;jettySize=auto;html=1;entryX=0.03;entryY=0.349;entryDx=0;entryDy=0;entryPerimeter=0;" parent="1" target="6UN-5yC824onA_a0hbCS-18" edge="1">
          <mxGeometry relative="1" as="geometry">
            <mxPoint x="-210" y="470" as="sourcePoint" />
            <mxPoint x="310" y="870" as="targetPoint" />
          </mxGeometry>
        </mxCell>
        <mxCell id="6UN-5yC824onA_a0hbCS-84" style="rounded=0;orthogonalLoop=1;jettySize=auto;html=1;entryX=0.028;entryY=0.29;entryDx=0;entryDy=0;entryPerimeter=0;" parent="1" target="6UN-5yC824onA_a0hbCS-82" edge="1">
          <mxGeometry relative="1" as="geometry">
            <mxPoint x="-180" y="460" as="sourcePoint" />
          </mxGeometry>
        </mxCell>
        <mxCell id="6UN-5yC824onA_a0hbCS-63" style="rounded=0;orthogonalLoop=1;jettySize=auto;html=1;" parent="1" source="6UN-5yC824onA_a0hbCS-4" target="6UN-5yC824onA_a0hbCS-56" edge="1">
          <mxGeometry relative="1" as="geometry" />
        </mxCell>
        <mxCell id="6UN-5yC824onA_a0hbCS-64" style="edgeStyle=orthogonalEdgeStyle;rounded=0;orthogonalLoop=1;jettySize=auto;html=1;" parent="1" source="6UN-5yC824onA_a0hbCS-4" target="6UN-5yC824onA_a0hbCS-58" edge="1">
          <mxGeometry relative="1" as="geometry" />
        </mxCell>
        <mxCell id="6UN-5yC824onA_a0hbCS-65" style="rounded=0;orthogonalLoop=1;jettySize=auto;html=1;" parent="1" source="6UN-5yC824onA_a0hbCS-4" target="6UN-5yC824onA_a0hbCS-60" edge="1">
          <mxGeometry relative="1" as="geometry" />
        </mxCell>
        <mxCell id="qHYqdTP-Ib_73ltVK5A2-1" style="rounded=0;orthogonalLoop=1;jettySize=auto;html=1;entryX=1;entryY=1;entryDx=0;entryDy=0;" edge="1" parent="1" source="6UN-5yC824onA_a0hbCS-4" target="6UN-5yC824onA_a0hbCS-66">
          <mxGeometry relative="1" as="geometry" />
        </mxCell>
        <mxCell id="qHYqdTP-Ib_73ltVK5A2-2" style="rounded=0;orthogonalLoop=1;jettySize=auto;html=1;entryX=1;entryY=0.5;entryDx=0;entryDy=0;" edge="1" parent="1" source="6UN-5yC824onA_a0hbCS-4" target="6UN-5yC824onA_a0hbCS-8">
          <mxGeometry relative="1" as="geometry" />
        </mxCell>
        <mxCell id="qHYqdTP-Ib_73ltVK5A2-16" style="edgeStyle=orthogonalEdgeStyle;rounded=0;orthogonalLoop=1;jettySize=auto;html=1;endArrow=block;endFill=0;" edge="1" parent="1">
          <mxGeometry relative="1" as="geometry">
            <mxPoint x="1175" y="570" as="sourcePoint" />
            <mxPoint x="-205" y="530" as="targetPoint" />
            <Array as="points">
              <mxPoint x="1175" y="1290" />
              <mxPoint x="-205" y="1290" />
            </Array>
          </mxGeometry>
        </mxCell>
        <mxCell id="6UN-5yC824onA_a0hbCS-4" value="Admin" style="shape=umlActor;verticalLabelPosition=bottom;verticalAlign=top;html=1;outlineConnect=0;" parent="1" vertex="1">
          <mxGeometry x="1160" y="480" width="30" height="60" as="geometry" />
        </mxCell>
        <mxCell id="6UN-5yC824onA_a0hbCS-6" value="" style="ellipse;whiteSpace=wrap;html=1;" parent="1" vertex="1">
          <mxGeometry x="360" y="210" width="120" height="80" as="geometry" />
        </mxCell>
        <mxCell id="6UN-5yC824onA_a0hbCS-7" value="Upravljanje opravil" style="text;html=1;strokeColor=none;fillColor=none;align=center;verticalAlign=middle;whiteSpace=wrap;rounded=0;" parent="1" vertex="1">
          <mxGeometry x="390" y="240" width="60" height="30" as="geometry" />
        </mxCell>
        <mxCell id="6UN-5yC824onA_a0hbCS-8" value="" style="ellipse;whiteSpace=wrap;html=1;" parent="1" vertex="1">
          <mxGeometry x="860" y="275" width="120" height="80" as="geometry" />
        </mxCell>
        <mxCell id="6UN-5yC824onA_a0hbCS-9" value="Urejanje Kanban table" style="text;html=1;strokeColor=none;fillColor=none;align=center;verticalAlign=middle;whiteSpace=wrap;rounded=0;" parent="1" vertex="1">
          <mxGeometry x="890" y="305" width="60" height="30" as="geometry" />
        </mxCell>
        <mxCell id="6UN-5yC824onA_a0hbCS-10" value="" style="ellipse;whiteSpace=wrap;html=1;" parent="1" vertex="1">
          <mxGeometry x="460" y="550" width="120" height="80" as="geometry" />
        </mxCell>
        <mxCell id="6UN-5yC824onA_a0hbCS-11" value="Premikanje opravil po tabli" style="text;html=1;strokeColor=none;fillColor=none;align=center;verticalAlign=middle;whiteSpace=wrap;rounded=0;" parent="1" vertex="1">
          <mxGeometry x="490" y="580" width="60" height="30" as="geometry" />
        </mxCell>
        <mxCell id="6UN-5yC824onA_a0hbCS-14" value="" style="ellipse;whiteSpace=wrap;html=1;" parent="1" vertex="1">
          <mxGeometry x="160" y="135" width="120" height="80" as="geometry" />
        </mxCell>
        <mxCell id="6UN-5yC824onA_a0hbCS-15" value="Ustvarjanje opravil" style="text;html=1;strokeColor=none;fillColor=none;align=center;verticalAlign=middle;whiteSpace=wrap;rounded=0;" parent="1" vertex="1">
          <mxGeometry x="190" y="165" width="60" height="30" as="geometry" />
        </mxCell>
        <mxCell id="6UN-5yC824onA_a0hbCS-16" value="" style="ellipse;whiteSpace=wrap;html=1;" parent="1" vertex="1">
          <mxGeometry x="180" y="300" width="120" height="80" as="geometry" />
        </mxCell>
        <mxCell id="6UN-5yC824onA_a0hbCS-17" value="Dodeljevanje opravil" style="text;html=1;strokeColor=none;fillColor=none;align=center;verticalAlign=middle;whiteSpace=wrap;rounded=0;" parent="1" vertex="1">
          <mxGeometry x="210" y="330" width="60" height="30" as="geometry" />
        </mxCell>
        <mxCell id="6UN-5yC824onA_a0hbCS-18" value="" style="ellipse;whiteSpace=wrap;html=1;" parent="1" vertex="1">
          <mxGeometry x="300" y="840" width="120" height="80" as="geometry" />
        </mxCell>
        <mxCell id="6UN-5yC824onA_a0hbCS-19" value="Nalaganje dokumenta" style="text;html=1;strokeColor=none;fillColor=none;align=center;verticalAlign=middle;whiteSpace=wrap;rounded=0;" parent="1" vertex="1">
          <mxGeometry x="330" y="870" width="60" height="30" as="geometry" />
        </mxCell>
        <mxCell id="6UN-5yC824onA_a0hbCS-38" value="" style="ellipse;whiteSpace=wrap;html=1;" parent="1" vertex="1">
          <mxGeometry x="240" y="-170" width="120" height="80" as="geometry" />
        </mxCell>
        <mxCell id="6UN-5yC824onA_a0hbCS-39" value="Ustvarjanje dogodka" style="text;html=1;strokeColor=none;fillColor=none;align=center;verticalAlign=middle;whiteSpace=wrap;rounded=0;" parent="1" vertex="1">
          <mxGeometry x="270" y="-140" width="60" height="30" as="geometry" />
        </mxCell>
        <mxCell id="6UN-5yC824onA_a0hbCS-40" value="" style="ellipse;whiteSpace=wrap;html=1;" parent="1" vertex="1">
          <mxGeometry x="270" y="-70" width="120" height="80" as="geometry" />
        </mxCell>
        <mxCell id="6UN-5yC824onA_a0hbCS-41" value="Brisanje dogodka" style="text;html=1;strokeColor=none;fillColor=none;align=center;verticalAlign=middle;whiteSpace=wrap;rounded=0;" parent="1" vertex="1">
          <mxGeometry x="300" y="-40" width="60" height="30" as="geometry" />
        </mxCell>
        <mxCell id="6UN-5yC824onA_a0hbCS-42" value="" style="ellipse;whiteSpace=wrap;html=1;" parent="1" vertex="1">
          <mxGeometry x="225" y="20" width="120" height="80" as="geometry" />
        </mxCell>
        <mxCell id="6UN-5yC824onA_a0hbCS-43" value="Urejanje dogodka" style="text;html=1;strokeColor=none;fillColor=none;align=center;verticalAlign=middle;whiteSpace=wrap;rounded=0;" parent="1" vertex="1">
          <mxGeometry x="255" y="50" width="60" height="30" as="geometry" />
        </mxCell>
        <mxCell id="6UN-5yC824onA_a0hbCS-44" value="" style="ellipse;whiteSpace=wrap;html=1;" parent="1" vertex="1">
          <mxGeometry x="135" y="420" width="120" height="80" as="geometry" />
        </mxCell>
        <mxCell id="6UN-5yC824onA_a0hbCS-45" value="Pregled opravil za projekt" style="text;html=1;strokeColor=none;fillColor=none;align=center;verticalAlign=middle;whiteSpace=wrap;rounded=0;" parent="1" vertex="1">
          <mxGeometry x="165" y="450" width="60" height="30" as="geometry" />
        </mxCell>
        <mxCell id="6UN-5yC824onA_a0hbCS-46" value="" style="ellipse;whiteSpace=wrap;html=1;" parent="1" vertex="1">
          <mxGeometry x="450" y="700" width="140" height="100" as="geometry" />
        </mxCell>
        <mxCell id="6UN-5yC824onA_a0hbCS-47" value="Pregled in spremljanje dogodkov in opravil v koledarju" style="text;html=1;strokeColor=none;fillColor=none;align=center;verticalAlign=middle;whiteSpace=wrap;rounded=0;" parent="1" vertex="1">
          <mxGeometry x="465" y="738.18" width="110" height="30" as="geometry" />
        </mxCell>
        <mxCell id="6UN-5yC824onA_a0hbCS-53" style="rounded=0;orthogonalLoop=1;jettySize=auto;html=1;entryX=1;entryY=0.375;entryDx=0;entryDy=0;entryPerimeter=0;" parent="1" source="6UN-5yC824onA_a0hbCS-48" target="6UN-5yC824onA_a0hbCS-51" edge="1">
          <mxGeometry relative="1" as="geometry" />
        </mxCell>
        <mxCell id="6UN-5yC824onA_a0hbCS-62" style="rounded=0;orthogonalLoop=1;jettySize=auto;html=1;" parent="1" source="6UN-5yC824onA_a0hbCS-48" target="6UN-5yC824onA_a0hbCS-54" edge="1">
          <mxGeometry relative="1" as="geometry" />
        </mxCell>
        <mxCell id="6UN-5yC824onA_a0hbCS-48" value="Super admin" style="shape=umlActor;verticalLabelPosition=bottom;verticalAlign=top;html=1;outlineConnect=0;" parent="1" vertex="1">
          <mxGeometry x="1220" y="-30" width="30" height="60" as="geometry" />
        </mxCell>
        <mxCell id="6UN-5yC824onA_a0hbCS-51" value="" style="ellipse;whiteSpace=wrap;html=1;" parent="1" vertex="1">
          <mxGeometry x="900" y="-70" width="120" height="80" as="geometry" />
        </mxCell>
        <mxCell id="6UN-5yC824onA_a0hbCS-52" value="Upravljanje z podjetji" style="text;html=1;strokeColor=none;fillColor=none;align=center;verticalAlign=middle;whiteSpace=wrap;rounded=0;" parent="1" vertex="1">
          <mxGeometry x="930" y="-40" width="60" height="30" as="geometry" />
        </mxCell>
        <mxCell id="6UN-5yC824onA_a0hbCS-54" value="" style="ellipse;whiteSpace=wrap;html=1;" parent="1" vertex="1">
          <mxGeometry x="920" y="60" width="120" height="80" as="geometry" />
        </mxCell>
        <mxCell id="6UN-5yC824onA_a0hbCS-55" value="Določanje admina podjetja" style="text;html=1;strokeColor=none;fillColor=none;align=center;verticalAlign=middle;whiteSpace=wrap;rounded=0;" parent="1" vertex="1">
          <mxGeometry x="950" y="90" width="60" height="30" as="geometry" />
        </mxCell>
        <mxCell id="6UN-5yC824onA_a0hbCS-56" value="" style="ellipse;whiteSpace=wrap;html=1;" parent="1" vertex="1">
          <mxGeometry x="900" y="370" width="120" height="80" as="geometry" />
        </mxCell>
        <mxCell id="6UN-5yC824onA_a0hbCS-57" value="Dodajanje zaposlenih" style="text;html=1;strokeColor=none;fillColor=none;align=center;verticalAlign=middle;whiteSpace=wrap;rounded=0;" parent="1" vertex="1">
          <mxGeometry x="930" y="400" width="60" height="30" as="geometry" />
        </mxCell>
        <mxCell id="6UN-5yC824onA_a0hbCS-58" value="" style="ellipse;whiteSpace=wrap;html=1;" parent="1" vertex="1">
          <mxGeometry x="920" y="470" width="120" height="80" as="geometry" />
        </mxCell>
        <mxCell id="6UN-5yC824onA_a0hbCS-59" value="Urejanje zaposlenih" style="text;html=1;strokeColor=none;fillColor=none;align=center;verticalAlign=middle;whiteSpace=wrap;rounded=0;" parent="1" vertex="1">
          <mxGeometry x="950" y="500" width="60" height="30" as="geometry" />
        </mxCell>
        <mxCell id="6UN-5yC824onA_a0hbCS-60" value="" style="ellipse;whiteSpace=wrap;html=1;" parent="1" vertex="1">
          <mxGeometry x="910" y="580" width="120" height="80" as="geometry" />
        </mxCell>
        <mxCell id="6UN-5yC824onA_a0hbCS-61" value="Upravljanje podjetja" style="text;html=1;strokeColor=none;fillColor=none;align=center;verticalAlign=middle;whiteSpace=wrap;rounded=0;" parent="1" vertex="1">
          <mxGeometry x="940" y="610" width="60" height="30" as="geometry" />
        </mxCell>
        <mxCell id="6UN-5yC824onA_a0hbCS-66" value="" style="ellipse;whiteSpace=wrap;html=1;" parent="1" vertex="1">
          <mxGeometry x="920" y="195" width="120" height="80" as="geometry" />
        </mxCell>
        <mxCell id="6UN-5yC824onA_a0hbCS-67" value="Ustvarjanje in upravljanje&amp;nbsp;&lt;br&gt;projektov" style="text;html=1;strokeColor=none;fillColor=none;align=center;verticalAlign=middle;whiteSpace=wrap;rounded=0;" parent="1" vertex="1">
          <mxGeometry x="950" y="220" width="60" height="30" as="geometry" />
        </mxCell>
        <mxCell id="6UN-5yC824onA_a0hbCS-85" style="rounded=0;orthogonalLoop=1;jettySize=auto;html=1;entryX=0;entryY=0.5;entryDx=0;entryDy=0;" parent="1" source="6UN-5yC824onA_a0hbCS-70" target="6UN-5yC824onA_a0hbCS-16" edge="1">
          <mxGeometry relative="1" as="geometry" />
        </mxCell>
        <mxCell id="6UN-5yC824onA_a0hbCS-86" style="rounded=0;orthogonalLoop=1;jettySize=auto;html=1;" parent="1" source="6UN-5yC824onA_a0hbCS-70" target="6UN-5yC824onA_a0hbCS-14" edge="1">
          <mxGeometry relative="1" as="geometry" />
        </mxCell>
        <mxCell id="6UN-5yC824onA_a0hbCS-87" style="rounded=0;orthogonalLoop=1;jettySize=auto;html=1;" parent="1" source="6UN-5yC824onA_a0hbCS-70" target="6UN-5yC824onA_a0hbCS-42" edge="1">
          <mxGeometry relative="1" as="geometry" />
        </mxCell>
        <mxCell id="6UN-5yC824onA_a0hbCS-88" style="rounded=0;orthogonalLoop=1;jettySize=auto;html=1;entryX=0.033;entryY=0.625;entryDx=0;entryDy=0;entryPerimeter=0;" parent="1" source="6UN-5yC824onA_a0hbCS-70" target="6UN-5yC824onA_a0hbCS-40" edge="1">
          <mxGeometry relative="1" as="geometry" />
        </mxCell>
        <mxCell id="6UN-5yC824onA_a0hbCS-89" style="rounded=0;orthogonalLoop=1;jettySize=auto;html=1;" parent="1" source="6UN-5yC824onA_a0hbCS-70" target="6UN-5yC824onA_a0hbCS-38" edge="1">
          <mxGeometry relative="1" as="geometry" />
        </mxCell>
        <mxCell id="6UN-5yC824onA_a0hbCS-93" style="rounded=0;orthogonalLoop=1;jettySize=auto;html=1;entryX=0;entryY=0.5;entryDx=0;entryDy=0;" parent="1" source="6UN-5yC824onA_a0hbCS-70" target="6UN-5yC824onA_a0hbCS-6" edge="1">
          <mxGeometry relative="1" as="geometry" />
        </mxCell>
        <mxCell id="6UN-5yC824onA_a0hbCS-70" value="Zaposlen" style="shape=umlActor;verticalLabelPosition=bottom;verticalAlign=top;html=1;outlineConnect=0;" parent="1" vertex="1">
          <mxGeometry x="-220" y="380" width="30" height="60" as="geometry" />
        </mxCell>
        <mxCell id="6UN-5yC824onA_a0hbCS-95" style="rounded=0;orthogonalLoop=1;jettySize=auto;html=1;" parent="1" target="6UN-5yC824onA_a0hbCS-44" edge="1">
          <mxGeometry relative="1" as="geometry">
            <mxPoint x="-180" y="420" as="sourcePoint" />
          </mxGeometry>
        </mxCell>
        <mxCell id="6UN-5yC824onA_a0hbCS-96" style="rounded=0;orthogonalLoop=1;jettySize=auto;html=1;entryX=0.025;entryY=0.363;entryDx=0;entryDy=0;entryPerimeter=0;" parent="1" target="6UN-5yC824onA_a0hbCS-10" edge="1">
          <mxGeometry relative="1" as="geometry">
            <mxPoint x="-180" y="430" as="sourcePoint" />
          </mxGeometry>
        </mxCell>
        <mxCell id="6UN-5yC824onA_a0hbCS-82" value="" style="ellipse;whiteSpace=wrap;html=1;" parent="1" vertex="1">
          <mxGeometry x="330" y="580" width="120" height="80" as="geometry" />
        </mxCell>
        <mxCell id="6UN-5yC824onA_a0hbCS-83" value="Pregled projektov podjetja" style="text;html=1;strokeColor=none;fillColor=none;align=center;verticalAlign=middle;whiteSpace=wrap;rounded=0;" parent="1" vertex="1">
          <mxGeometry x="360" y="610" width="60" height="30" as="geometry" />
        </mxCell>
        <mxCell id="qHYqdTP-Ib_73ltVK5A2-3" style="rounded=0;orthogonalLoop=1;jettySize=auto;html=1;entryX=0.026;entryY=0.268;entryDx=0;entryDy=0;entryPerimeter=0;" edge="1" parent="1" target="qHYqdTP-Ib_73ltVK5A2-4">
          <mxGeometry relative="1" as="geometry">
            <mxPoint x="-210" y="470" as="sourcePoint" />
          </mxGeometry>
        </mxCell>
        <mxCell id="qHYqdTP-Ib_73ltVK5A2-4" value="" style="ellipse;whiteSpace=wrap;html=1;" vertex="1" parent="1">
          <mxGeometry x="200" y="899.9999999999999" width="120" height="80" as="geometry" />
        </mxCell>
        <mxCell id="qHYqdTP-Ib_73ltVK5A2-5" value="Iskanje po naslovu dokumenta" style="text;html=1;strokeColor=none;fillColor=none;align=center;verticalAlign=middle;whiteSpace=wrap;rounded=0;" vertex="1" parent="1">
          <mxGeometry x="230" y="929.9999999999999" width="60" height="30" as="geometry" />
        </mxCell>
        <mxCell id="qHYqdTP-Ib_73ltVK5A2-6" style="rounded=0;orthogonalLoop=1;jettySize=auto;html=1;entryX=0;entryY=0;entryDx=0;entryDy=0;" edge="1" parent="1" target="qHYqdTP-Ib_73ltVK5A2-7">
          <mxGeometry relative="1" as="geometry">
            <mxPoint x="-220" y="470" as="sourcePoint" />
          </mxGeometry>
        </mxCell>
        <mxCell id="qHYqdTP-Ib_73ltVK5A2-7" value="" style="ellipse;whiteSpace=wrap;html=1;" vertex="1" parent="1">
          <mxGeometry x="190" y="1040" width="180" height="120" as="geometry" />
        </mxCell>
        <mxCell id="qHYqdTP-Ib_73ltVK5A2-8" value="Iskanje po znanju iz dokumenta s pomoćjo umetne inteligence" style="text;html=1;strokeColor=none;fillColor=none;align=center;verticalAlign=middle;whiteSpace=wrap;rounded=0;" vertex="1" parent="1">
          <mxGeometry x="230" y="1089" width="110" height="30" as="geometry" />
        </mxCell>
        <mxCell id="qHYqdTP-Ib_73ltVK5A2-9" style="rounded=0;orthogonalLoop=1;jettySize=auto;html=1;entryX=0.019;entryY=0.304;entryDx=0;entryDy=0;entryPerimeter=0;" edge="1" parent="1" target="qHYqdTP-Ib_73ltVK5A2-10">
          <mxGeometry relative="1" as="geometry">
            <mxPoint x="-200" y="470" as="sourcePoint" />
          </mxGeometry>
        </mxCell>
        <mxCell id="qHYqdTP-Ib_73ltVK5A2-10" value="" style="ellipse;whiteSpace=wrap;html=1;" vertex="1" parent="1">
          <mxGeometry x="240" y="700" width="120" height="80" as="geometry" />
        </mxCell>
        <mxCell id="qHYqdTP-Ib_73ltVK5A2-11" value="Urejanje&lt;br&gt;dokumentov" style="text;html=1;strokeColor=none;fillColor=none;align=center;verticalAlign=middle;whiteSpace=wrap;rounded=0;" vertex="1" parent="1">
          <mxGeometry x="270" y="730" width="60" height="30" as="geometry" />
        </mxCell>
        <mxCell id="qHYqdTP-Ib_73ltVK5A2-14" style="rounded=0;orthogonalLoop=1;jettySize=auto;html=1;entryX=1;entryY=0.5;entryDx=0;entryDy=0;dashed=1;dashPattern=8 8;endArrow=classic;endFill=1;" edge="1" parent="1" source="qHYqdTP-Ib_73ltVK5A2-12" target="6UN-5yC824onA_a0hbCS-10">
          <mxGeometry relative="1" as="geometry" />
        </mxCell>
        <mxCell id="qHYqdTP-Ib_73ltVK5A2-15" value="&amp;lt;&amp;lt;extend&amp;gt;&amp;gt;" style="edgeLabel;html=1;align=center;verticalAlign=middle;resizable=0;points=[];" vertex="1" connectable="0" parent="qHYqdTP-Ib_73ltVK5A2-14">
          <mxGeometry x="-0.2332" y="2" relative="1" as="geometry">
            <mxPoint x="-12" y="-14" as="offset" />
          </mxGeometry>
        </mxCell>
        <mxCell id="qHYqdTP-Ib_73ltVK5A2-12" value="" style="ellipse;whiteSpace=wrap;html=1;" vertex="1" parent="1">
          <mxGeometry x="680" y="530" width="120" height="80" as="geometry" />
        </mxCell>
        <mxCell id="qHYqdTP-Ib_73ltVK5A2-13" value="Integracija z github-om" style="text;html=1;strokeColor=none;fillColor=none;align=center;verticalAlign=middle;whiteSpace=wrap;rounded=0;" vertex="1" parent="1">
          <mxGeometry x="705" y="555" width="70" height="30" as="geometry" />
        </mxCell>
      </root>
    </mxGraphModel>
  </diagram>
</mxfile>
